<svg width="40" height="40" viewBox="0 0 40 40" fill="none" xmlns="http://www.w3.org/2000/svg">
<path fillRule="evenodd" clipRule="evenodd" d="M33.9862 31.2235L32.7437 15.1836C32.6418 13.8681 31.5685 12.8538 30.2784 12.8538H27.5554V11.7154C27.5554 7.45431 24.1784 4 20.0127 4C15.847 4 12.47 7.45431 12.47 11.7154V12.8538H9.6358C8.34058 12.8538 7.26478 13.876 7.16949 15.1973L6.01197 31.2474C5.82689 33.8137 7.81243 36 10.328 36H29.6719C32.1969 36 34.1856 33.7981 33.9862 31.2235ZM14.6957 11.6522C14.6957 8.68337 17.0485 6.27668 19.9509 6.27668C22.8532 6.27668 25.206 8.68337 25.206 11.6522V12.8538H14.6957V11.6522ZM26.6078 20.5131C26.0972 19.2678 25.031 18.445 23.791 18.3422C22.5734 18.2412 21.2006 18.835 20.0306 20.378C18.8647 18.8531 17.4999 18.2662 16.2888 18.3666C15.0488 18.4694 13.9826 19.2922 13.472 20.5376C12.4525 23.0244 13.6503 27.1571 19.9642 30.6641C19.9689 30.6666 19.9743 30.6698 19.9798 30.673C19.9911 30.6795 20.0024 30.6861 20.0069 30.6877C20.0135 30.6901 20.0226 30.6877 20.0304 30.6853L20.061 30.6699C20.0831 30.6577 20.1051 30.6455 20.127 30.6333C26.431 27.1277 27.6267 22.9984 26.6078 20.5131Z" fill="#F87632"/>
</svg>
